<svg width="108" height="60" viewBox="0 0 108 60" fill="none" xmlns="http://www.w3.org/2000/svg">
<path d="M47.5848 42.7612C46.0852 42.7612 44.7242 42.4787 43.5019 41.9138C42.2796 41.3386 41.309 40.5117 40.59 39.4332C39.871 38.3444 39.5115 37.0297 39.5115 35.489C39.5115 34.1332 39.7785 33.0341 40.3126 32.1918C40.8467 31.3393 41.5606 30.6717 42.4542 30.1889C43.3478 29.7062 44.3339 29.3467 45.4124 29.1104C46.5012 28.8639 47.5951 28.6687 48.6941 28.5249C50.1321 28.3401 51.2979 28.2014 52.1916 28.1089C53.0954 28.0062 53.7528 27.8368 54.1637 27.6005C54.5848 27.3643 54.7954 26.9534 54.7954 26.3679V26.2447C54.7954 24.7245 54.3794 23.5433 53.5474 22.701C52.7257 21.8588 51.4777 21.4376 49.8034 21.4376C48.0676 21.4376 46.7066 21.8177 45.7205 22.5778C44.7345 23.3379 44.0412 24.1493 43.6406 25.0121L40.1894 23.7795C40.8057 22.3415 41.6274 21.2219 42.6545 20.4208C43.6919 19.6093 44.8218 19.0444 46.0441 18.726C47.2767 18.3973 48.4887 18.2329 49.6802 18.2329C50.4403 18.2329 51.3134 18.3254 52.2994 18.5103C53.2957 18.6849 54.2561 19.0495 55.1806 19.6042C56.1153 20.1588 56.8908 20.996 57.507 22.1156C58.1233 23.2351 58.4315 24.7348 58.4315 26.6144V42.2065H54.7954V39.0018H54.6105C54.364 39.5154 53.9531 40.0649 53.3779 40.6504C52.8027 41.2359 52.0375 41.734 51.0822 42.1449C50.127 42.5557 48.9612 42.7612 47.5848 42.7612ZM48.1395 39.4948C49.5775 39.4948 50.7895 39.2124 51.7756 38.6475C52.7719 38.0825 53.5217 37.3533 54.025 36.4596C54.5386 35.566 54.7954 34.6262 54.7954 33.6401V30.3122C54.6413 30.4971 54.3023 30.6665 53.7785 30.8206C53.2649 30.9644 52.6692 31.0928 51.9913 31.2058C51.3236 31.3085 50.6714 31.4009 50.0346 31.4831C49.408 31.555 48.8996 31.6166 48.5092 31.668C47.5643 31.7913 46.6809 31.9916 45.8592 32.2689C45.0478 32.5359 44.3904 32.9417 43.8871 33.486C43.3941 34.0202 43.1475 34.7494 43.1475 35.6739C43.1475 36.9373 43.6149 37.8925 44.5496 38.5396C45.4946 39.1764 46.6912 39.4948 48.1395 39.4948Z" fill="white"/>
<path d="M21.4906 42.1509H16.9905L7.48498 14.0937V42.1509H3.44401V8.67516H9.36771L19.2865 37.8345L29.0215 8.67516H34.9452V42.1509H30.9043V14.0937L21.4906 42.1509Z" fill="white"/>
<path d="M102.835 14.594V16.8226H107.515V12.3654H102.835V14.594ZM103.058 31.5314V42.2287H107.069V20.8341H103.058V31.5314Z" fill="white"/>
<path d="M82.5552 42.1883V27.1948V12.0403H86.5667V30.0919L95.7931 20.9547H100.384L92.3165 28.7548L96.8182 35.3069C98.8989 38.409 100.658 41.0615 101.143 41.8747L101.316 42.1911H96.4965L93.2525 37.0006C91.425 34.0589 89.7758 31.652 89.5976 31.652L86.5667 34.2789V42.1883H82.5552Z" fill="white"/>
<path d="M60.8596 42.1883V27.1948V12.0403H64.8711V30.0919L74.0975 20.9547H78.6885L70.6209 28.7548L75.1227 35.3069C77.2033 38.409 78.9629 41.0615 79.4476 41.8747L79.6207 42.1911H74.801L71.5569 37.0006C69.7295 34.0589 68.0803 31.652 67.902 31.652L64.8711 34.2789V42.1883H60.8596Z" fill="white"/>
</svg>
