<svg width="753" height="251" viewBox="0 0 753 251" fill="none" xmlns="http://www.w3.org/2000/svg">
<path d="M130.495 244.782H97.9339L29.1574 41.775V244.782H-0.0809629V2.569H42.7798L114.547 213.55L184.984 2.569H227.845V244.782H198.607V41.775L130.495 244.782Z" fill="#E4E4E4"/>
<path d="M319.298 248.255C308.447 248.255 298.6 246.211 289.756 242.124C280.912 237.962 273.889 231.979 268.687 224.176C263.484 216.298 260.883 206.785 260.883 195.637C260.883 185.827 262.815 177.875 266.68 171.781C270.545 165.613 275.71 160.782 282.175 157.289C288.641 153.796 295.776 151.195 303.579 149.485C311.457 147.702 319.372 146.29 327.324 145.249C337.729 143.912 346.164 142.908 352.63 142.239C359.17 141.496 363.926 140.27 366.899 138.561C369.946 136.851 371.469 133.878 371.469 129.642V128.75C371.469 117.751 368.46 109.205 362.44 103.111C356.494 97.0164 347.464 93.9693 335.351 93.9693C322.791 93.9693 312.943 96.7191 305.809 102.219C298.674 107.718 293.658 113.589 290.759 119.832L265.788 110.914C270.247 100.509 276.193 92.4086 283.625 86.6117C291.131 80.7405 299.306 76.653 308.15 74.3491C317.068 71.9709 325.838 70.7818 334.459 70.7818C339.958 70.7818 346.275 71.4507 353.41 72.7884C360.619 74.0519 367.568 76.6902 374.256 80.7034C381.019 84.7166 386.63 90.7736 391.09 98.8743C395.549 106.975 397.778 117.826 397.778 131.426V244.242H371.469V221.054H370.132C368.348 224.77 365.375 228.746 361.213 232.983C357.052 237.219 351.515 240.823 344.603 243.796C337.692 246.769 329.256 248.255 319.298 248.255ZM323.311 224.622C333.716 224.622 342.485 222.578 349.62 218.49C356.829 214.403 362.254 209.126 365.896 202.661C369.611 196.195 371.469 189.395 371.469 182.26V158.181C370.355 159.518 367.902 160.745 364.112 161.86C360.396 162.9 356.085 163.829 351.18 164.646C346.35 165.39 341.63 166.059 337.023 166.653C332.489 167.173 328.81 167.619 325.986 167.991C319.149 168.883 312.758 170.332 306.812 172.338C300.941 174.271 296.185 177.206 292.543 181.145C288.976 185.01 287.192 190.286 287.192 196.975C287.192 206.116 290.573 213.028 297.336 217.71C304.174 222.318 312.832 224.622 323.311 224.622Z" fill="#E4E4E4"/>
<path d="M719.059 44.3422V60.4672H752.922V28.2172H719.059V44.3422ZM720.672 166.892V244.292H749.697V89.4922H720.672V166.892Z" fill="#E4E4E4"/>
<path d="M572.325 244V135.515V25.8651H601.35V156.478L668.107 90.365H701.325L642.953 146.803L675.525 194.21C690.579 216.655 703.311 235.848 706.818 241.732L708.07 244.021H673.197L649.725 206.465C636.502 185.18 624.57 167.765 623.28 167.765L601.35 186.772V244H572.325Z" fill="#E4E4E4"/>
<path d="M415.348 244V135.515V25.8651H444.373V156.478L511.13 90.365H544.348L485.975 146.803L518.548 194.21C533.602 216.655 546.334 235.848 549.841 241.732L551.093 244.021H516.22L492.748 206.465C479.525 185.18 467.593 167.765 466.303 167.765L444.373 186.772V244H415.348Z" fill="#E4E4E4"/>
</svg>
