<svg width="82" height="82" viewBox="0 0 82 82" fill="none" xmlns="http://www.w3.org/2000/svg">
<path d="M73.0602 0.153381H9.35387C4.55252 0.153381 0.645264 4.06064 0.645264 8.86198V66.7626C0.645264 71.5639 4.55252 75.4712 9.35387 75.4712H10.8024V78.374C10.8024 79.9764 12.1 81.2769 13.7053 81.2769H21.8884C23.4937 81.2769 24.7913 79.9764 24.7913 78.374V75.4712H57.6198V78.374C57.6198 79.9764 58.9174 81.2769 60.5227 81.2769H68.7059C70.3112 81.2769 71.6088 79.9764 71.6088 78.374V75.4712H73.0573C77.8586 75.4712 81.7659 71.5639 81.7659 66.7626V8.86198C81.7659 4.06064 77.8615 0.153381 73.0602 0.153381ZM75.9631 66.7597C75.9631 68.3592 74.6626 69.6625 73.0602 69.6625H9.35387C7.75148 69.6625 6.451 68.3592 6.451 66.7597V8.86198C6.451 7.2625 7.75148 5.95912 9.35387 5.95912H73.0602C74.6626 5.95912 75.9631 7.2625 75.9631 8.86198V66.7597Z" fill="black"/>
<path d="M58.65 26.142C52.2143 26.142 46.9775 31.3758 46.9775 37.8115C46.9775 44.2472 52.2143 49.481 58.65 49.481C65.0856 49.481 70.3195 44.2472 70.3195 37.8115C70.3195 31.3758 65.0856 26.142 58.65 26.142ZM58.65 43.6753C55.4162 43.6753 52.7833 41.0453 52.7833 37.8115C52.7833 34.5777 55.4133 31.9477 58.65 31.9477C61.8867 31.9477 64.5138 34.5777 64.5138 37.8115C64.5138 41.0453 61.8838 43.6753 58.65 43.6753Z" fill="black"/>
</svg>
