<svg width="55" height="57" viewBox="0 0 55 57" fill="none" xmlns="http://www.w3.org/2000/svg">
<path d="M3.80796 20.0391H13.2124C13.0723 19.7274 12.9413 19.4065 12.8261 19.0813C12.4443 18.0128 12.2004 16.872 12.1122 15.6883H9.63863C7.96247 15.6883 6.44216 16.3728 5.34199 17.4729C4.6349 18.1867 4.10182 19.0632 3.8059 20.0414L3.80796 20.0391ZM17.179 20.0391H27.548C25.5036 17.9518 24.2385 15.0919 24.2385 11.9382C24.2385 9.85311 24.7897 7.89682 25.7566 6.20707L25.6436 6.17318C25.0224 6.00376 24.3537 5.91114 23.6489 5.91114C21.4306 5.91114 19.4201 6.88026 17.9608 8.44573C16.4698 10.0428 15.5481 12.2657 15.5481 14.7256C15.5481 15.8505 15.7402 16.9281 16.0926 17.9153C16.3659 18.6811 16.7341 19.3949 17.1791 20.0365L17.179 20.0391ZM35.7073 20.0391H35.9196C38.077 20.012 40.0288 19.1445 41.4655 17.7507L41.5445 17.6672C43.0107 16.201 43.9188 14.1747 43.9188 11.9383C43.9188 9.70193 43.0107 7.6756 41.5445 6.20954C40.083 4.74116 38.0567 3.83531 35.8157 3.83531C33.5793 3.83531 31.553 4.74342 30.0869 6.20954C28.6208 7.67566 27.7127 9.70198 27.7127 11.9383C27.7127 14.1748 28.6208 16.2011 30.0869 17.6672C31.5282 19.1084 33.5161 20.012 35.7096 20.0391L35.7073 20.0391ZM44.0771 20.0391H51.3262V15.6883H46.7652C46.2005 17.3374 45.2744 18.8215 44.0771 20.0391ZM54.796 21.774V46.6435C54.796 49.3701 53.68 51.8482 51.8864 53.6421C50.0928 55.4358 47.6124 56.5494 44.8878 56.5494H9.99514C7.26854 56.5494 4.79039 55.4335 2.99648 53.6421C1.20281 51.8485 0.0869141 49.3681 0.0869141 46.6435V21.774C0.0869141 19.1445 1.16222 16.7545 2.89262 15.024C4.63205 13.2936 7.01756 12.2183 9.6426 12.2183H12.324C12.7871 9.85768 13.8918 7.74097 15.4324 6.08944C17.531 3.83723 20.4407 2.4434 23.6554 2.4434C24.6403 2.4434 25.6162 2.5812 26.5604 2.84324C27.0732 2.9833 27.5702 3.16176 28.0468 3.36733C30.1003 1.50363 32.8269 0.369629 35.8181 0.369629C39.0078 0.369629 41.8996 1.66631 43.9936 3.76041C46.0945 5.85451 47.3889 8.74829 47.3889 11.9423L47.3844 12.2224H53.0613C54.019 12.2224 54.7962 12.9995 54.7962 13.9573V21.7777L54.796 21.774ZM51.3262 40.4718V36.121H45.9611C45.3624 36.121 44.8157 36.3649 44.4227 36.758C44.0318 37.1556 43.7856 37.7 43.7856 38.2941C43.7856 38.8928 44.0318 39.4372 44.4249 39.8302L44.4882 39.898C44.8744 40.2527 45.394 40.4695 45.9588 40.4695H51.3239L51.3262 40.4718Z" fill="white"/>
</svg>
